<svg enable-background="new 0 0 64 64" height="64" viewBox="0 0 64 64" width="64" xmlns="http://www.w3.org/2000/svg"><g fill="none" stroke="#000" stroke-miterlimit="10" stroke-width="2"><path d="m32.001.887c17.184 0 31.113 13.929 31.112 31.113.001 17.185-13.929 31.115-31.113 31.113-17.185.001-31.113-13.928-31.112-31.112-.003-17.185 13.927-31.114 31.113-31.114z"/><path d="m32 1v62"/><path d="m63 32h-62"/><path d="m30 1s-14 11-14 31 14 31 14 31"/><path d="m34 1s14 11 14 31-14 31-14 31"/><path d="m8 12s5 10 24 10 24-10 24-10"/><path d="m8 52s5-10 24-10 24 10 24 10"/></g></svg>